<svg xmlns="http://www.w3.org/2000/svg" viewBox="10 10 40 40"><path fill="#0084ff" d="M10 10h40v40H10V10Z"/><path fill="#fff" d="M27.47 30.5c0-.47-.07-.94-.18-1.4a3.04 3.04 0 0 0-.65-1.1c-.2-.34-.49-.62-.82-.8l-1.2-.2-1.1.2c-.37.18-.68.45-.92.8-.23.34-.41.71-.55 1.1-.12.46-.18.93-.19 1.4v10.7c0 .3 0 .5-.18.6a.7.7 0 0 1-.55.2H16.9c-.46 0-.65-.3-.65-.8V22.3c0-.5.19-.8.65-.8h2.66c.27 0 .53.11.74.3.15.18.28.38.37.6l.36 1.8a6.33 6.33 0 0 1 2.4-2.2c.9-.5 1.92-.73 2.94-.7l1.29.2c.47.04.94.18 1.37.4.47.28.9.61 1.3 1 .46.43.86.94 1.19 1.5a7.25 7.25 0 0 1 2.57-2.3c.94-.52 1.98-.8 3.04-.8 1.04 0 2.08.24 3.03.7.85.5 1.6 1.18 2.2 2 .55.92.96 1.94 1.2 3 .3 1.17.46 2.38.46 3.6v10.6c.07.47-.3.87-.73.8h-4.14c-.46 0-.64-.3-.64-.8V30.5c-.01-.47-.07-.94-.19-1.4-.09-.41-.28-.8-.55-1.1a1.5 1.5 0 0 0-.83-.7c-.34-.2-.72-.3-1.1-.3-.42 0-.83.1-1.2.3-.33.14-.62.38-.82.7-.27.33-.49.7-.65 1.1-.11.46-.17.93-.18 1.4v10.7c.05.42-.25.8-.65.8h-4.23c-.45 0-.64-.3-.64-.8V30.5Z"/></svg>