<svg xmlns="http://www.w3.org/2000/svg" viewBox="9.6 10.4 43.5 40"><path fill="#0084ff" d="M9.6 10.4h43.5v40H9.6z"/><path fill="#fff" d="M28.6 30.9a5.9 5.9 0 0 0-.2-1.4 3 3 0 0 0-.7-1.1 2.3 2.3 0 0 0-.9-.8l-1.3-.2-1.2.2a2.5 2.5 0 0 0-1 .8 5.4 5.4 0 0 0-.6 1.1 5.9 5.9 0 0 0-.2 1.4v10.7c0 .3 0 .5-.2.6a.8.8 0 0 1-.6.2h-4.6c-.5 0-.7-.3-.7-.8V22.7c0-.5.2-.8.7-.8H20a1.3 1.3 0 0 1 .8.3 2.1 2.1 0 0 1 .4.6l.4 1.8a6.7 6.7 0 0 1 2.6-2.2 6.8 6.8 0 0 1 3.2-.7l1.4.2a4.2 4.2 0 0 1 1.5.4 7.1 7.1 0 0 1 1.4 1 6.4 6.4 0 0 1 1.3 1.5 7.7 7.7 0 0 1 2.8-2.3 7.3 7.3 0 0 1 3.3-.8 8.1 8.1 0 0 1 3.3.7 7.8 7.8 0 0 1 2.4 2 10.1 10.1 0 0 1 1.3 3 13.6 13.6 0 0 1 .5 3.6v10.6a.7.7 0 0 1-.8.8h-4.5c-.5 0-.7-.3-.7-.8V30.9a5.9 5.9 0 0 0-.2-1.4 2.4 2.4 0 0 0-.6-1.1 1.6 1.6 0 0 0-.9-.7 2.4 2.4 0 0 0-1.2-.3 2.8 2.8 0 0 0-1.3.3 2 2 0 0 0-.9.7 4.1 4.1 0 0 0-.7 1.1 5.9 5.9 0 0 0-.2 1.4v10.7a.7.7 0 0 1-.7.8h-4.6c-.5 0-.7-.3-.7-.8z"/></svg>