<svg xmlns="http://www.w3.org/2000/svg" viewBox="0 0 169.7 60.5">
  <defs/>
  <path fill="#0084ff" d="M9.6 10.4h151v40H9.6z"/>
  <g fill="#fff" style="isolation:isolate">
    <path d="M28.6 30.9a5.9 5.9 0 00-.2-1.4 3 3 0 00-.7-1.1 2.3 2.3 0 00-.9-.8l-1.3-.2-1.2.2a2.5 2.5 0 00-1 .8 5.4 5.4 0 00-.6 1.1 5.9 5.9 0 00-.2 1.4v10.7c0 .3 0 .5-.2.6a.8.8 0 01-.6.2h-4.6c-.5 0-.7-.3-.7-.8V22.7c0-.5.2-.8.7-.8H20a1.3 1.3 0 01.8.3 2.1 2.1 0 01.4.6l.4 1.8a6.7 6.7 0 012.6-2.2 6.8 6.8 0 013.2-.7l1.4.2a4.2 4.2 0 011.5.4 7.1 7.1 0 011.4 1 6.4 6.4 0 011.3 1.5 7.7 7.7 0 012.8-2.3 7.3 7.3 0 013.3-.8 8.1 8.1 0 013.3.7 7.8 7.8 0 012.4 2 10.1 10.1 0 011.3 3 13.6 13.6 0 01.5 3.6v10.6a.7.7 0 01-.8.8h-4.5c-.5 0-.7-.3-.7-.8V30.9a5.9 5.9 0 00-.2-1.4 2.4 2.4 0 00-.6-1.1 1.6 1.6 0 00-.9-.7 2.4 2.4 0 00-1.2-.3 2.8 2.8 0 00-1.3.3 2 2 0 00-.9.7 4.1 4.1 0 00-.7 1.1 5.9 5.9 0 00-.2 1.4v10.7a.7.7 0 01-.7.8h-4.6c-.5 0-.7-.3-.7-.8zM62 22.7c0-.3 0-.5.2-.6a.8.8 0 01.6-.2h4.6c.5 0 .7.3.7.8v18.9c0 .5-.2.8-.7.8h-3a1.1 1.1 0 01-.7-.3 1 1 0 01-.4-.7l-.5-1.7a9.3 9.3 0 01-1.4 1.4 5.1 5.1 0 01-1.6.9 4.8 4.8 0 01-1.7.5l-1.7.2-1.5-.2a4.9 4.9 0 01-1.6-.5 5.9 5.9 0 01-1.7-1 5.6 5.6 0 01-1.4-1.6 9.9 9.9 0 01-1-2.3 15.1 15.1 0 01-.3-3.2V22.7c0-.5.2-.8.7-.8h4.5a.7.7 0 01.8.8v10.8a2.7 2.7 0 00.2 1.3 2.8 2.8 0 00.8 1.1 2.8 2.8 0 001.1.8 4 4 0 001.5.3l1-.2a3.1 3.1 0 001.2-.5 5.3 5.3 0 00.9-1.1 2.9 2.9 0 00.4-1.7zM69.8 39a.4.4 0 01-.1-.3.3.3 0 010-.4.5.5 0 01.3-.4l2.2-2.2.5-.2.6.3.8.7 1 .6 1 .4h2.1l.7-.3.4-.4c0-.2.1-.4.1-.6a1.4 1.4 0 00-.2-.6c0-.2-.2-.3-.4-.4l-1-.5-1.6-.5a12.8 12.8 0 01-2.6-1 7.4 7.4 0 01-1.9-1.5 5.9 5.9 0 01-1.1-1.9 8.8 8.8 0 01-.3-2.4 5.6 5.6 0 01.5-2.3 4.3 4.3 0 011.5-1.8 6.7 6.7 0 012.4-1.2 10.2 10.2 0 013.2-.5 8.8 8.8 0 012.4.3l1.8.7 1.3 1 1.1.9a.9.9 0 01.3.6c0 .2-.1.4-.4.7L82 27.9a.6.6 0 01-.5.2.8.8 0 01-.6-.2l-.5-.5-.7-.4-.7-.3h-.9a2.4 2.4 0 00-1.4.3c-.3.2-.5.4-.5.7a1.1 1.1 0 00.2.6l.7.4 1.3.4 2 .6a12.6 12.6 0 012.6 1.2 5.6 5.6 0 011.5 1.6 7.1 7.1 0 01.8 1.8 12.3 12.3 0 01.2 1.9 5.3 5.3 0 01-.7 2.8 6.8 6.8 0 01-1.7 2.1 11.5 11.5 0 01-2.5 1.2 9.8 9.8 0 01-2.9.5l-2.1-.2-2-.5-1.9-1.1a12.5 12.5 0 01-1.7-1.6zM87.5 28.1a11.9 11.9 0 012.2-3.3 11.1 11.1 0 013.4-2.2 9.5 9.5 0 014.1-.9 9.8 9.8 0 014.1.9 11.1 11.1 0 013.4 2.2 11.9 11.9 0 012.2 3.3 9.7 9.7 0 01.8 4.1 9.4 9.4 0 01-.8 4.1 8.6 8.6 0 01-2.3 3.3 9.8 9.8 0 01-3.3 2.3 11.5 11.5 0 01-4.1.8 11.1 11.1 0 01-4.1-.8 11.3 11.3 0 01-3.4-2.3 9.6 9.6 0 01-2.2-3.3 9.4 9.4 0 01-.8-4.1 9.7 9.7 0 01.8-4.1zm5.4 6.1a5.1 5.1 0 00.9 1.6 5.8 5.8 0 001.5 1.1 4.7 4.7 0 003.8 0 8.3 8.3 0 001.5-1.1 4.6 4.6 0 00.9-1.7 6.2 6.2 0 000-3.8 4.2 4.2 0 00-.9-1.6 3.3 3.3 0 00-1.5-1.1 3.9 3.9 0 00-3.8 0 3.3 3.3 0 00-1.5 1.1 3.5 3.5 0 00-.9 1.6 4.1 4.1 0 00-.4 1.9 4.8 4.8 0 00.4 2zM109.5 37.6a.8.8 0 01.2-.5h5.4a.4.4 0 01.1.3v4.1c0 .2 0 .3-.1.4h-.4a.1.1 0 01-.1.1h-5c-.1-.1-.1-.2-.1-.4zM116.9 39l-.2-.3v-.4l.3-.4 2.3-2.2.4-.2a.9.9 0 01.6.3l.9.7.9.6 1.1.4h2.1l.7-.3.3-.4a1.8 1.8 0 000-1.2 1 1 0 00-.5-.4l-.9-.5-1.6-.5a13.9 13.9 0 01-2.7-1 9 9 0 01-1.8-1.5 4.5 4.5 0 01-1.1-1.9 8.6 8.6 0 01-.4-2.4 4.4 4.4 0 01.6-2.3 4.9 4.9 0 011.4-1.8 9 9 0 012.4-1.2 11.4 11.4 0 013.3-.5 7.5 7.5 0 012.3.3l1.8.7a7.1 7.1 0 011.4 1l1 .9c.2.2.4.4.4.6s-.1.4-.4.7l-2.5 2.1a.6.6 0 01-.5.2.6.6 0 01-.5-.2l-.6-.5-.6-.4-.7-.3h-1a2.6 2.6 0 00-1.4.3.8.8 0 00-.4.7c0 .2 0 .5.2.6s.3.3.7.4l1.3.4 1.9.6A9 9 0 01130 31a6.1 6.1 0 011.6 1.6 6.7 6.7 0 01.7 1.8 6.2 6.2 0 01.2 1.9 6.4 6.4 0 01-.6 2.8 9.1 9.1 0 01-1.8 2.1 8.3 8.3 0 01-2.5 1.2 9.3 9.3 0 01-2.9.5l-2-.2-2-.5a7.2 7.2 0 01-1.9-1.1 8.5 8.5 0 01-1.7-1.6.5.5 0 01-.2-.5zM146.1 30.2l8.4 10.9c.1.2.2.3.2.5v.4l-.3.3h-5.7l-.5-.2-.5-.5-5.4-7.5-1.9 1.9v5.6c0 .4-.2.7-.6.7H135a.7.7 0 01-.7-.7v-25a.6.6 0 01.7-.7h4.8c.4 0 .6.2.6.7v12.3l5.8-6.4a1.3 1.3 0 01.6-.5h5.4l.5.2.3.3c0 .1.1.2.1.4l-.2.3z"/>
  </g>
</svg>
